<svg xmlns="http://www.w3.org/2000/svg" version="1.1" xmlns:xlink="http://www.w3.org/1999/xlink" xmlns:svgjs="http://svgjs.dev/svgjs" width="1000" height="118" viewBox="0 0 1000 118"><g transform="matrix(1,0,0,1,-0.6060602621911357,-0.56669728857824)"><svg viewBox="0 0 396 47" data-background-color="#000000" preserveAspectRatio="xMidYMid meet" height="118" width="1000" xmlns="http://www.w3.org/2000/svg" xmlns:xlink="http://www.w3.org/1999/xlink"><defs></defs><g id="tight-bounds" transform="matrix(1,0,0,1,0.24000013617228433,0.22571841155235006)"><svg viewBox="0 0 395.52 46.54856317689531" height="46.54856317689531" width="395.52"><g><svg viewBox="0 0 395.52 46.54856317689531" height="46.54856317689531" width="395.52"><g><svg viewBox="0 0 395.52 46.54856317689531" height="46.54856317689531" width="395.52"><g><svg viewBox="0 0 395.52 46.54856317689531" height="46.54856317689531" width="395.52"><g><svg viewBox="0 0 395.52 46.54856317689531" height="46.54856317689531" width="395.52"><g transform="matrix(1,0,0,1,0,0)"><svg width="395.52" viewBox="2.750000238418579 -37.45000457763672 346.25 37.75000762939453" height="46.54856317689531" data-palette-color="#ffffff"><svg></svg><g class="undefined-text-0" data-fill-palette-color="primary" id="text-0"><path d="M12.55 0.3v0c-0.8 0-1.757-0.083-2.87-0.25-1.12-0.167-2.203-0.533-3.25-1.1-1.053-0.567-1.93-1.443-2.63-2.63-0.7-1.18-1.05-2.803-1.05-4.87v0-19.4c0-1.8 0.283-3.3 0.85-4.5 0.567-1.2 1.3-2.14 2.2-2.82 0.9-0.687 1.9-1.173 3-1.46 1.1-0.28 2.167-0.42 3.2-0.42v0c2.8 0 5.21 0.043 7.23 0.13 2.013 0.08 3.763 0.17 5.25 0.27 1.48 0.1 2.787 0.217 3.92 0.35v0 8.2h-13.4c-0.833 0-1.467 0.183-1.9 0.55-0.433 0.367-0.65 0.917-0.65 1.65v0 3.1l13.45 0.5v7.7l-13.45 0.5v2.8c0 0.6 0.093 1.09 0.28 1.47 0.18 0.387 0.437 0.67 0.77 0.85 0.333 0.187 0.7 0.28 1.1 0.28v0h13.8v8.2c-1.433 0.2-3.067 0.367-4.9 0.5-1.833 0.133-3.7 0.233-5.6 0.3-1.9 0.067-3.683 0.1-5.35 0.1zM64.2 0h-10.7l-23.05-37.15h10.7zM41.3 0h-10.7l12.65-20.85 5 8.15zM64.45-37.15l-12.95 21.25-4.95-8 7.2-13.25zM77.15 0h-9.7v-37.15h16.3c1.267 0 2.567 0.14 3.9 0.42 1.333 0.287 2.56 0.87 3.68 1.75 1.113 0.887 2.013 2.22 2.7 4 0.68 1.787 1.02 4.163 1.02 7.13v0c0 3-0.333 5.407-1 7.22-0.667 1.82-1.533 3.187-2.6 4.1-1.067 0.92-2.223 1.537-3.47 1.85-1.253 0.32-2.48 0.48-3.68 0.48v0c-0.633 0-1.29-0.033-1.97-0.1-0.687-0.067-1.353-0.16-2-0.28-0.653-0.113-1.253-0.23-1.8-0.35-0.553-0.113-1.013-0.203-1.38-0.27v0zM77.15-28.45v9.55h5.6c0.667 0 1.193-0.183 1.58-0.55 0.38-0.367 0.647-0.91 0.8-1.63 0.147-0.713 0.22-1.603 0.22-2.67v0c0-1.033-0.09-1.9-0.27-2.6-0.187-0.7-0.463-1.227-0.83-1.58-0.367-0.347-0.867-0.52-1.5-0.52v0zM108.9 0.3v0c-0.8 0-1.757-0.083-2.87-0.25-1.12-0.167-2.203-0.533-3.25-1.1-1.053-0.567-1.93-1.443-2.63-2.63-0.7-1.18-1.05-2.803-1.05-4.87v0-19.4c0-1.8 0.283-3.3 0.85-4.5 0.567-1.2 1.3-2.14 2.2-2.82 0.9-0.687 1.9-1.173 3-1.46 1.1-0.28 2.167-0.42 3.2-0.42v0c2.8 0 5.21 0.043 7.23 0.13 2.013 0.08 3.763 0.17 5.25 0.27 1.48 0.1 2.787 0.217 3.92 0.35v0 8.2h-13.4c-0.833 0-1.467 0.183-1.9 0.55-0.433 0.367-0.65 0.917-0.65 1.65v0 3.1l13.45 0.5v7.7l-13.45 0.5v2.8c0 0.6 0.093 1.09 0.28 1.47 0.18 0.387 0.437 0.67 0.77 0.85 0.333 0.187 0.7 0.28 1.1 0.28v0h13.8v8.2c-1.433 0.2-3.067 0.367-4.9 0.5-1.833 0.133-3.7 0.233-5.6 0.3-1.9 0.067-3.683 0.1-5.35 0.1zM139 0h-9.7v-37.15h7.7l13.05 20.7v-20.7h9.7v37.15h-7.7l-13.05-20.7zM176.9 0.3v0c-1.1 0-2.173-0.033-3.22-0.1-1.053-0.067-2.09-0.167-3.11-0.3-1.013-0.133-1.987-0.283-2.92-0.45-0.933-0.167-1.833-0.367-2.7-0.6v0-7.7c1.133 0.1 2.36 0.183 3.68 0.25 1.313 0.067 2.647 0.117 4 0.15 1.347 0.033 2.603 0.05 3.77 0.05v0c1.1 0 2.017-0.083 2.75-0.25 0.733-0.167 1.283-0.433 1.65-0.8 0.367-0.367 0.55-0.867 0.55-1.5v0-0.6c0-0.733-0.26-1.283-0.78-1.65-0.513-0.367-1.12-0.55-1.82-0.55v0h-2.65c-3.867 0-6.8-0.85-8.8-2.55-2-1.7-3-4.55-3-8.55v0-1.65c0-3.667 1.1-6.41 3.3-8.23 2.2-1.813 5.367-2.72 9.5-2.72v0c1.567 0 3.043 0.073 4.43 0.22 1.38 0.153 2.68 0.337 3.9 0.55 1.213 0.22 2.303 0.447 3.27 0.68v0 7.7c-1.533-0.133-3.257-0.243-5.17-0.33-1.92-0.08-3.663-0.12-5.23-0.12v0c-0.933 0-1.767 0.067-2.5 0.2-0.733 0.133-1.3 0.4-1.7 0.8-0.4 0.4-0.6 0.983-0.6 1.75v0 0.5c0 0.833 0.267 1.467 0.8 1.9 0.533 0.433 1.35 0.65 2.45 0.65v0h3.3c2.333 0 4.277 0.44 5.83 1.32 1.547 0.887 2.713 2.087 3.5 3.6 0.78 1.52 1.17 3.247 1.17 5.18v0 1.65c0 3.167-0.55 5.583-1.65 7.25-1.1 1.667-2.667 2.79-4.7 3.37-2.033 0.587-4.467 0.88-7.3 0.88zM204.9 0.3v0c-0.8 0-1.757-0.083-2.87-0.25-1.12-0.167-2.203-0.533-3.25-1.1-1.053-0.567-1.93-1.443-2.63-2.63-0.7-1.18-1.05-2.803-1.05-4.87v0-19.4c0-1.8 0.283-3.3 0.85-4.5 0.567-1.2 1.3-2.14 2.2-2.82 0.9-0.687 1.9-1.173 3-1.46 1.1-0.28 2.167-0.42 3.2-0.42v0c2.8 0 5.207 0.043 7.22 0.13 2.02 0.08 3.77 0.17 5.25 0.27 1.487 0.1 2.797 0.217 3.93 0.35v0 8.2h-13.4c-0.833 0-1.467 0.183-1.9 0.55-0.433 0.367-0.65 0.917-0.65 1.65v0 3.1l13.45 0.5v7.7l-13.45 0.5v2.8c0 0.6 0.09 1.09 0.27 1.47 0.187 0.387 0.447 0.67 0.78 0.85 0.333 0.187 0.7 0.28 1.1 0.28v0h13.8v8.2c-1.433 0.2-3.067 0.367-4.9 0.5-1.833 0.133-3.7 0.233-5.6 0.3-1.9 0.067-3.683 0.1-5.35 0.1zM236.95 0.3v0c-1.1 0-2.173-0.033-3.22-0.1-1.053-0.067-2.087-0.167-3.1-0.3-1.02-0.133-1.997-0.283-2.93-0.45-0.933-0.167-1.833-0.367-2.7-0.6v0-7.7c1.133 0.1 2.36 0.183 3.68 0.25 1.313 0.067 2.647 0.117 4 0.15 1.347 0.033 2.603 0.05 3.77 0.05v0c1.1 0 2.017-0.083 2.75-0.25 0.733-0.167 1.283-0.433 1.65-0.8 0.367-0.367 0.55-0.867 0.55-1.5v0-0.6c0-0.733-0.257-1.283-0.77-1.65-0.52-0.367-1.13-0.55-1.83-0.55v0h-2.65c-3.867 0-6.8-0.85-8.8-2.55-2-1.7-3-4.55-3-8.55v0-1.65c0-3.667 1.1-6.41 3.3-8.23 2.2-1.813 5.367-2.72 9.5-2.72v0c1.567 0 3.043 0.073 4.43 0.22 1.38 0.153 2.68 0.337 3.9 0.55 1.213 0.22 2.303 0.447 3.27 0.68v0 7.7c-1.533-0.133-3.257-0.243-5.17-0.33-1.92-0.08-3.663-0.12-5.23-0.12v0c-0.933 0-1.767 0.067-2.5 0.2-0.733 0.133-1.3 0.4-1.7 0.8-0.4 0.4-0.6 0.983-0.6 1.75v0 0.5c0 0.833 0.267 1.467 0.8 1.9 0.533 0.433 1.35 0.65 2.45 0.65v0h3.3c2.333 0 4.277 0.44 5.83 1.32 1.547 0.887 2.713 2.087 3.5 3.6 0.78 1.52 1.17 3.247 1.17 5.18v0 1.65c0 3.167-0.55 5.583-1.65 7.25-1.1 1.667-2.667 2.79-4.7 3.37-2.033 0.587-4.467 0.88-7.3 0.88zM262.6 0h-9.95l11-37.15h12.1l11 37.15h-10.05l-1.5-5.9h-11.15zM269.6-28.9l-3.3 14.3h6.65zM299.45 0h-9.7v-37.15h16.3c1.267 0 2.567 0.14 3.9 0.42 1.333 0.287 2.56 0.87 3.68 1.75 1.113 0.887 2.01 2.22 2.69 4 0.687 1.787 1.03 4.163 1.03 7.13v0c0 3-0.333 5.407-1 7.22-0.667 1.82-1.533 3.187-2.6 4.1-1.067 0.92-2.227 1.537-3.48 1.85-1.247 0.32-2.47 0.48-3.67 0.48v0c-0.633 0-1.29-0.033-1.97-0.1-0.687-0.067-1.353-0.16-2-0.28-0.653-0.113-1.257-0.23-1.81-0.35-0.547-0.113-1.003-0.203-1.37-0.27v0zM299.45-28.45v9.55h5.6c0.667 0 1.193-0.183 1.58-0.55 0.38-0.367 0.647-0.91 0.8-1.63 0.147-0.713 0.22-1.603 0.22-2.67v0c0-1.033-0.09-1.9-0.27-2.6-0.187-0.7-0.463-1.227-0.83-1.58-0.367-0.347-0.867-0.52-1.5-0.52v0zM331.1 0h-9.7v-37.15h16.3c1.267 0 2.567 0.14 3.9 0.42 1.333 0.287 2.557 0.87 3.67 1.75 1.12 0.887 2.02 2.22 2.7 4 0.687 1.787 1.03 4.163 1.03 7.13v0c0 3-0.333 5.407-1 7.22-0.667 1.82-1.533 3.187-2.6 4.1-1.067 0.92-2.227 1.537-3.48 1.85-1.247 0.32-2.47 0.48-3.67 0.48v0c-0.633 0-1.293-0.033-1.98-0.1-0.68-0.067-1.347-0.16-2-0.28-0.647-0.113-1.247-0.23-1.8-0.35-0.547-0.113-1.003-0.203-1.37-0.27v0zM331.1-28.45v9.55h5.6c0.667 0 1.19-0.183 1.57-0.55 0.387-0.367 0.653-0.91 0.8-1.63 0.153-0.713 0.23-1.603 0.23-2.67v0c0-1.033-0.093-1.9-0.28-2.6-0.18-0.7-0.453-1.227-0.82-1.58-0.367-0.347-0.867-0.52-1.5-0.52v0z" data-fill-palette-color="primary" fill="#ffffff" opacity="1"></path></g></svg></g></svg></g></svg></g></svg></g></svg></g></svg><rect width="395.52" height="46.54856317689531" fill="none" stroke="none" visibility="hidden"></rect></g></svg></g></svg>