<svg xmlns="http://www.w3.org/2000/svg" version="1.1" xmlns:xlink="http://www.w3.org/1999/xlink" xmlns:svgjs="http://svgjs.dev/svgjs" width="1000" height="623" viewBox="0 0 1000 623"><g transform="matrix(1,0,0,1,-0.6060453877486225,0.2522267206477409)"><svg viewBox="0 0 396 247" data-background-color="#051726" preserveAspectRatio="xMidYMid meet" height="623" width="1000" xmlns="http://www.w3.org/2000/svg" xmlns:xlink="http://www.w3.org/1999/xlink"><defs></defs><g id="tight-bounds" transform="matrix(1,0,0,1,0.23999397354845087,-0.09999999999999432)"><svg viewBox="0 0 395.52 247.2" height="247.2" width="395.52"><g><svg></svg></g><g><svg viewBox="0 0 395.52 247.2" height="247.2" width="395.52"><g><path d="M55.039 247.2l29.401-50.924h226.64l29.401 50.924zM197.76 0l29.401 50.924-58.802 0z" fill="#ffffff" data-fill-palette-color="tertiary"></path></g><g transform="matrix(1,0,0,1,0,71.68850878429066)"><svg viewBox="0 0 395.52 103.82298243141867" height="103.82298243141867" width="395.52"><g><svg viewBox="0 0 395.52 103.82298243141867" height="103.82298243141867" width="395.52"><g transform="matrix(1,0,0,1,0,64.16676831409791)"><svg viewBox="0 0 395.52 39.65621411732076" height="39.65621411732076" width="395.52"><g><svg viewBox="0 0 395.52 39.65621411732076" height="39.65621411732076" width="395.52"><g><svg viewBox="0 0 395.52 39.65621411732076" height="39.65621411732076" width="395.52"><g transform="matrix(1,0,0,1,0,0)"><svg width="395.52" viewBox="4 -35.45000076293945 360.5199890136719 36.150001525878906" height="39.65621411732076" data-palette-color="#ffffff"><path d="M28.55 0L4 0 4-34.65 27.4-34.65 27.4-28.1 11.8-28.1 11.8-21.3 25.65-21.3 25.65-14.9 11.8-14.9 11.8-6.55 28.55-6.55 28.55 0ZM64.55 0L55.2 0Q53.75-2.9 52.02-5.88 50.3-8.85 48.05-11.95L48.05-11.95Q47.35-11.05 46.27-9.45 45.2-7.85 44.12-6.05 43.05-4.25 42.1-2.6 41.15-0.95 40.7 0L40.7 0 31.8 0Q34-4.05 36.92-8.5 39.85-12.95 43.45-17.95L43.45-17.95 32.3-34.65 41.75-34.65 48.5-23.85 55.1-34.65 64-34.65 53-17.85Q57.2-12.4 60.05-7.78 62.9-3.15 64.55 0L64.55 0ZM79.45-35.05L79.45-35.05Q87.2-35.05 91.34-32.33 95.5-29.6 95.5-23.4L95.5-23.4Q95.5-17.15 91.3-14.38 87.09-11.6 79.3-11.6L79.3-11.6 76.84-11.6 76.84 0 69.05 0 69.05-34.15Q71.59-34.65 74.45-34.85 77.3-35.05 79.45-35.05ZM79.95-28.4L79.95-28.4Q79.09-28.4 78.27-28.35 77.45-28.3 76.84-28.25L76.84-28.25 76.84-18.25 79.3-18.25Q83.34-18.25 85.4-19.35 87.45-20.45 87.45-23.45L87.45-23.45Q87.45-24.9 86.92-25.85 86.4-26.8 85.42-27.38 84.45-27.95 83.05-28.18 81.65-28.4 79.95-28.4ZM125.79 0L101.24 0 101.24-34.65 124.64-34.65 124.64-28.1 109.04-28.1 109.04-21.3 122.89-21.3 122.89-14.9 109.04-14.9 109.04-6.55 125.79-6.55 125.79 0ZM161.34 0L154.79 0Q151.44-5.95 147.54-11.75 143.64-17.55 139.24-22.7L139.24-22.7 139.24 0 131.54 0 131.54-34.65 137.89-34.65Q139.54-33 141.54-30.6 143.54-28.2 145.62-25.48 147.69-22.75 149.74-19.83 151.79-16.9 153.59-14.2L153.59-14.2 153.59-34.65 161.34-34.65 161.34 0ZM178.79-5.95L178.79-5.95Q180.44-5.95 181.51-6.23 182.59-6.5 183.24-6.98 183.89-7.45 184.14-8.1 184.39-8.75 184.39-9.55L184.39-9.55Q184.39-11.25 182.79-12.38 181.19-13.5 177.29-14.8L177.29-14.8Q175.59-15.4 173.89-16.18 172.19-16.95 170.84-18.13 169.49-19.3 168.64-20.98 167.79-22.65 167.79-25.05L167.79-25.05Q167.79-27.45 168.69-29.38 169.59-31.3 171.24-32.65 172.89-34 175.24-34.73 177.59-35.45 180.54-35.45L180.54-35.45Q184.04-35.45 186.59-34.7 189.14-33.95 190.79-33.05L190.79-33.05 188.54-26.9Q187.09-27.65 185.31-28.23 183.54-28.8 181.04-28.8L181.04-28.8Q178.24-28.8 177.01-28.03 175.79-27.25 175.79-25.65L175.79-25.65Q175.79-24.7 176.24-24.05 176.69-23.4 177.51-22.88 178.34-22.35 179.41-21.93 180.49-21.5 181.79-21.05L181.79-21.05Q184.49-20.05 186.49-19.07 188.49-18.1 189.81-16.8 191.14-15.5 191.79-13.75 192.44-12 192.44-9.5L192.44-9.5Q192.44-4.65 189.04-1.98 185.64 0.7 178.79 0.7L178.79 0.7Q176.49 0.7 174.64 0.43 172.79 0.15 171.36-0.25 169.94-0.65 168.91-1.1 167.89-1.55 167.19-1.95L167.19-1.95 169.39-8.15Q170.94-7.3 173.21-6.63 175.49-5.95 178.79-5.95ZM222.99 0L198.44 0 198.44-34.65 221.84-34.65 221.84-28.1 206.24-28.1 206.24-21.3 220.09-21.3 220.09-14.9 206.24-14.9 206.24-6.55 222.99-6.55 222.99 0ZM238.18-5.95L238.18-5.95Q239.83-5.95 240.91-6.23 241.98-6.5 242.63-6.98 243.28-7.45 243.53-8.1 243.78-8.75 243.78-9.55L243.78-9.55Q243.78-11.25 242.18-12.38 240.58-13.5 236.68-14.8L236.68-14.8Q234.98-15.4 233.28-16.18 231.58-16.95 230.23-18.13 228.88-19.3 228.03-20.98 227.18-22.65 227.18-25.05L227.18-25.05Q227.18-27.45 228.08-29.38 228.98-31.3 230.63-32.65 232.28-34 234.63-34.73 236.98-35.45 239.93-35.45L239.93-35.45Q243.43-35.45 245.98-34.7 248.53-33.95 250.18-33.05L250.18-33.05 247.93-26.9Q246.48-27.65 244.71-28.23 242.93-28.8 240.43-28.8L240.43-28.8Q237.63-28.8 236.41-28.03 235.18-27.25 235.18-25.65L235.18-25.65Q235.18-24.7 235.63-24.05 236.08-23.4 236.91-22.88 237.73-22.35 238.81-21.93 239.88-21.5 241.18-21.05L241.18-21.05Q243.88-20.05 245.88-19.07 247.88-18.1 249.21-16.8 250.53-15.5 251.18-13.75 251.83-12 251.83-9.5L251.83-9.5Q251.83-4.65 248.43-1.98 245.03 0.7 238.18 0.7L238.18 0.7Q235.88 0.7 234.03 0.43 232.18 0.15 230.76-0.25 229.33-0.65 228.31-1.1 227.28-1.55 226.58-1.95L226.58-1.95 228.78-8.15Q230.33-7.3 232.61-6.63 234.88-5.95 238.18-5.95ZM301.38 0L293.03 0Q292.48-1.8 291.8-3.7 291.13-5.6 290.48-7.5L290.48-7.5 276.98-7.5Q276.33-5.6 275.65-3.7 274.98-1.8 274.43 0L274.43 0 266.33 0Q268.28-5.6 270.03-10.35 271.78-15.1 273.45-19.3 275.13-23.5 276.75-27.28 278.38-31.05 280.13-34.65L280.13-34.65 287.58-34.65Q289.28-31.05 290.93-27.28 292.58-23.5 294.25-19.3 295.93-15.1 297.68-10.35 299.43-5.6 301.38 0L301.38 0ZM283.68-26.8L283.68-26.8Q283.43-26.05 282.93-24.75 282.43-23.45 281.78-21.75 281.13-20.05 280.35-18 279.58-15.95 278.78-13.7L278.78-13.7 288.63-13.7Q287.83-15.95 287.08-18 286.33-20.05 285.65-21.75 284.98-23.45 284.48-24.75 283.98-26.05 283.68-26.8ZM316.28-35.05L316.28-35.05Q324.03-35.05 328.18-32.33 332.33-29.6 332.33-23.4L332.33-23.4Q332.33-17.15 328.13-14.38 323.93-11.6 316.13-11.6L316.13-11.6 313.68-11.6 313.68 0 305.88 0 305.88-34.15Q308.43-34.65 311.28-34.85 314.13-35.05 316.28-35.05ZM316.78-28.4L316.78-28.4Q315.93-28.4 315.1-28.35 314.28-28.3 313.68-28.25L313.68-28.25 313.68-18.25 316.13-18.25Q320.18-18.25 322.23-19.35 324.28-20.45 324.28-23.45L324.28-23.45Q324.28-24.9 323.75-25.85 323.23-26.8 322.25-27.38 321.28-27.95 319.88-28.18 318.48-28.4 316.78-28.4ZM348.47-35.05L348.47-35.05Q356.22-35.05 360.37-32.33 364.52-29.6 364.52-23.4L364.52-23.4Q364.52-17.15 360.32-14.38 356.12-11.6 348.32-11.6L348.32-11.6 345.87-11.6 345.87 0 338.07 0 338.07-34.15Q340.62-34.65 343.47-34.85 346.32-35.05 348.47-35.05ZM348.97-28.4L348.97-28.4Q348.12-28.4 347.3-28.35 346.47-28.3 345.87-28.25L345.87-28.25 345.87-18.25 348.32-18.25Q352.37-18.25 354.42-19.35 356.47-20.45 356.47-23.45L356.47-23.45Q356.47-24.9 355.95-25.85 355.42-26.8 354.45-27.38 353.47-27.95 352.07-28.18 350.67-28.4 348.97-28.4Z" opacity="1" transform="matrix(1,0,0,1,0,0)" fill="#ffffff" class="undefined-text-0" data-fill-palette-color="primary" id="text-0"></path></svg></g></svg></g></svg></g></svg></g><g transform="matrix(1,0,0,1,165.61830072211592,0)"><svg viewBox="0 0 64.28339855576817 54.80488791013729" height="54.80488791013729" width="64.28339855576817"><g><svg xmlns="http://www.w3.org/2000/svg" xmlns:xlink="http://www.w3.org/1999/xlink" version="1.1" x="8.000000000000004" y="0" viewBox="-337.1669921875 256.13226318359375 87.9840087890625 99.86773681640625" enable-background="new -346 256 100 100" xml:space="preserve" height="54.80488791013729" width="48.283398555768166" class="icon-icon-0" data-fill-palette-color="accent" id="icon-0"><path d="M-263.363 311.56l-6.967-25.521-19.562-12.246 19.148-3.609 0.413-5.213c0 0-14.309-6.192-25.391-8.708-2.433-0.553-4.653 8.025-6.731 7.853-2.199-0.184-3.021-8.415-4.454-7.966-8.955 2.807-14.775 15.64-14.775 15.64l13.432 5.213-19.7 16.04v42.107L-337.167 356h87.984L-263.363 311.56zM-296.575 337.709c-11.64 0-21.076-9.436-21.076-21.076 0-11.639 9.436-21.075 21.076-21.075s21.076 9.436 21.076 21.075C-275.499 328.273-284.936 337.709-296.575 337.709z" fill="#81ffd9" data-fill-palette-color="accent"></path><path d="M-297.026 313.592c-1.286-0.602-2.143-1.31-2.143-2.443 0-1.664 0.935-2.584 2.143-3.08V313.592L-297.026 313.592zM-295.195 319.575c1.323 0.602 2.258 1.416 2.258 2.727 0 1.31-0.973 2.194-2.258 2.69V319.575L-295.195 319.575zM-297.026 301.271v2.62c-4.167 0.46-7.828 2.621-7.828 7.471 0 4.921 4.323 6.195 7.828 7.435v6.621c-0.273 0.07-0.506 0.07-0.74 0.07-2.142 0-4.284-0.602-6.153-1.521l-0.507 4.461c2.688 0.601 4.011 0.956 6.971 0.956 0.117 0 0.273 0 0.429-0.036v2.797h1.831v-2.902c4.478-0.496 7.944-2.69 7.944-7.33 0-5.098-4.519-6.372-7.944-7.611v-6.55c0.117-0.035 0.194-0.035 0.311-0.035 1.908 0 3.816 0.39 5.53 1.062l0.507-4.071c-1.948-0.603-4.051-0.886-6.348-0.886v-2.548H-297.026L-297.026 301.271z" fill="#81ffd9" data-fill-palette-color="accent"></path></svg></g></svg></g><g><rect width="165.61830072211592" height="3.5762383143129552" y="50.228649595824336" x="229.9016992778841" fill="#81ffd9" data-fill-palette-color="accent"></rect><rect width="165.61830072211592" height="3.5762383143129552" y="50.228649595824336" x="0" fill="#81ffd9" data-fill-palette-color="accent"></rect><rect width="165.61830072211592" height="3.5762383143129552" y="43.076172967198424" x="229.9016992778841" fill="#81ffd9" data-fill-palette-color="accent"></rect><rect width="165.61830072211592" height="3.5762383143129552" y="43.076172967198424" x="0" fill="#81ffd9" data-fill-palette-color="accent"></rect></g></svg></g></svg></g></svg></g></svg><rect width="395.52" height="247.2" fill="none" stroke="none" visibility="hidden"></rect></g></svg></g></svg>